<?xml version="1.0" encoding="UTF-8"?>
<svg id="Layer_1" data-name="Layer 1" xmlns="http://www.w3.org/2000/svg" xmlns:xlink="http://www.w3.org/1999/xlink" viewBox="0 0 400 400">
  <defs>
    <style>
      .cls-1 {
        fill: url(#linear-gradient-2);
      }

      .cls-2, .cls-3 {
        fill: #fff;
      }

      .cls-3, .cls-4 {
        stroke: #fff;
        stroke-miterlimit: 10;
        stroke-width: .88px;
      }

      .cls-5 {
        fill: url(#radial-gradient);
      }

      .cls-6 {
        clip-path: url(#clippath);
      }

      .cls-7, .cls-4 {
        fill: none;
      }

      .cls-8 {
        fill: url(#linear-gradient);
      }

      .cls-9 {
        fill: #2e368f;
      }
    </style>
    <radialGradient id="radial-gradient" cx="200" cy="195.22" fx="200" fy="195.22" r="167.33" gradientUnits="userSpaceOnUse">
      <stop offset=".57" stop-color="#ec1e27"/>
      <stop offset="1" stop-color="#7a1a21"/>
    </radialGradient>
    <linearGradient id="linear-gradient" x1="200.68" y1="214.92" x2="200.68" y2="145.55" gradientUnits="userSpaceOnUse">
      <stop offset=".57" stop-color="#ec1e27"/>
      <stop offset="1" stop-color="#7a1a21"/>
    </linearGradient>
    <clipPath id="clippath">
      <path class="cls-7" d="M144.57,215.87v-56.17c0-6.96,2.87-12.65,8.62-17.07s13.2-6.62,22.37-6.62c10.87,0,19.23,3.67,25.08,11.02,3.57-3.96,7.4-6.78,11.49-8.48,4.09-1.69,9.14-2.54,15.14-2.54,9.52,0,16.82,2.21,21.9,6.62,5.07,4.41,7.61,10.77,7.61,19.07v54.17h-31.53v-50.69c0-2.51-.27-4.17-.82-4.99-.54-.82-1.64-1.23-3.3-1.23-3.11,0-4.66,1.94-4.66,5.82v51.09h-31.53v-50.69c0-2.47-.28-4.13-.85-4.97-.57-.84-1.68-1.26-3.34-1.26-3.11,0-4.66,2.07-4.66,6.22v50.69h-31.53Z"/>
    </clipPath>
    <linearGradient id="linear-gradient-2" x1="203.12" y1="265.7" x2="203.12" y2="163.99" gradientUnits="userSpaceOnUse">
      <stop offset=".56" stop-color="#ec1e27"/>
      <stop offset="1" stop-color="#7a1a21"/>
    </linearGradient>
  </defs>
  <g>
    <path class="cls-5" d="M55.9,189.04s-11.35-12.2-8.91-29.27c0,0-28.53-29.38,8.91-35.43,0,0,20.36-18.24,27.68-18.24,0,0,0-17.08,9.76-24.39,0,0-7.32-39.03,29.27-24.39,0,0,21.96-4.88,31.71,0,0,0,14.64-13.42,24.39-15.86,2.84-8.46,10.94-13.95,19.52-13.42,7.75,.49,14.56,5.81,17.08,13.42,2.98,.85,6.48,2.32,10.37,4.27,5.49,2.74,11.59,6.71,14.03,11.59,0,0,17.08-7.32,31.71,0,0,0,21.96-12.2,29.27,0s2.44,21.96,2.44,21.96c0,0,9.76,7.32,9.76,24.39,0,0,19.52,9.76,26.83,19.52,0,0,21.96-2.44,24.39,12.2s-12.2,21.96-12.2,21.96c0,0,0,19.52-7.32,26.83,0,0,12.2,17.08,9.76,29.27,0,0,17.08,9.76,12.2,24.39-4.88,14.64-17.08,12.2-19.52,12.2s-7.32,12.2-26.83,19.52c0,0,0,19.52-9.76,29.27,0,0,7.32,17.08-4.88,29.27,0,0-7.32,7.32-24.39-4.88,0,0-21.96,9.76-31.71,0,0,0-17.08,24.39-26.83,21.96-1.78,9.01-8.76,15.87-17.08,17.08-10.16,1.47-20.67-5.76-23.17-17.08,0,0-23.17-9.76-28.05-21.96,0,0-21.96,7.32-31.71,0,0,0-21.96,12.2-29.27,2.44-7.32-9.76,0-21.96-2.44-24.39s-9.76-17.08-9.76-26.83c0,0,0-7.32-9.76-9.76-9.76-2.44-12.2-12.2-14.64-12.2s-35.44-6.05-20.16-27.42c0,0,7.96-9.17,7.96-11.61s3.18-21.96,11.35-24.39Z"/>
    <path class="cls-4" d="M83.73,182.3c7.56-60.79,60.28-105.89,119.74-104.19,56.56,1.62,105.02,45.2,112.79,102.87l-7.44,4.96c.74,7.12,4.09,45.91-23.98,79.94-29.65,35.95-71.36,38.7-78.06,39.03-5.42,.19-61.51,1.26-95.14-43.91-22.31-29.97-21.57-62.61-20.96-72.58l-6.95-6.12Z"/>
    <g>
      <path class="cls-2" d="M119.21,153.77l-17.42-11.65,3.52-5.26,14,4.78-9.79-11.07,3.53-5.28,17.42,11.65-2.18,3.27-13.71-9.17,11.4,12.62-2.26,3.39-16.02-5.72,13.71,9.17-2.18,3.27Z"/>
      <path class="cls-2" d="M135.78,125.22l3.35-2.3c.65,1.41,.84,2.78,.58,4.1-.27,1.32-1,2.56-2.2,3.72-1.9,1.83-3.9,2.57-6.01,2.21-1.68-.3-3.25-1.21-4.71-2.72-1.75-1.81-2.64-3.68-2.69-5.62-.04-1.94,.66-3.61,2.1-5,1.62-1.57,3.42-2.27,5.4-2.1s4.01,1.38,6.11,3.63l-7.24,6.99c.85,.84,1.73,1.28,2.63,1.32,.91,.05,1.69-.25,2.36-.89,.45-.44,.71-.93,.78-1.47,.07-.54-.08-1.17-.45-1.87Zm-2.66-3.08c-.83-.82-1.66-1.24-2.49-1.28-.83-.04-1.54,.23-2.13,.8-.63,.61-.93,1.34-.9,2.2s.43,1.68,1.2,2.46l4.32-4.17Z"/>
      <path class="cls-2" d="M141,107.95l1.89,2.58-2.22,1.62,3.61,4.94c.73,1,1.18,1.57,1.34,1.7,.16,.13,.36,.2,.59,.2,.23,0,.45-.08,.67-.24,.3-.22,.66-.64,1.08-1.26l2.12,2.31c-.52,.87-1.25,1.66-2.21,2.36-.58,.43-1.18,.71-1.8,.86-.61,.15-1.14,.15-1.59,0-.45-.15-.91-.46-1.38-.93-.34-.33-.94-1.06-1.77-2.21l-3.91-5.34-1.49,1.09-1.89-2.58,1.49-1.09-1.78-2.44,1.87-4.27,3.16,4.33,2.22-1.62Z"/>
      <path class="cls-2" d="M155.2,117.1l-3.49,1.99-7.54-13.18,3.24-1.85,1.07,1.87c.05-1.2,.21-2.07,.49-2.6,.28-.53,.7-.96,1.27-1.28,.79-.45,1.68-.67,2.67-.66l.66,3.66c-.81-.04-1.46,.08-1.96,.37-.49,.28-.82,.65-1.01,1.11-.19,.46-.17,1.1,.03,1.92,.21,.81,.95,2.34,2.23,4.58l2.33,4.07Z"/>
      <path class="cls-2" d="M157.45,106.78c-.48-1.25-.63-2.57-.46-3.97s.7-2.62,1.59-3.67c.89-1.04,2.03-1.83,3.42-2.36,2.15-.82,4.17-.79,6.07,.08,1.9,.87,3.26,2.37,4.07,4.5,.82,2.15,.8,4.19-.04,6.13-.85,1.94-2.32,3.31-4.42,4.11-1.3,.5-2.65,.68-4.06,.54-1.4-.14-2.63-.66-3.68-1.56s-1.88-2.17-2.5-3.79Zm3.92-1.27c.54,1.41,1.28,2.36,2.23,2.85,.95,.49,1.92,.55,2.9,.18,.98-.37,1.66-1.06,2.04-2.06,.38-1,.29-2.21-.25-3.64-.53-1.39-1.27-2.33-2.22-2.83-.95-.49-1.91-.56-2.89-.18-.98,.37-1.66,1.06-2.04,2.06-.38,1-.31,2.21,.23,3.61Z"/>
      <path class="cls-2" d="M184.8,106.61l-2.92-20.75,4.19-.59,2.92,20.75-4.19,.59Z"/>
      <path class="cls-2" d="M192.52,84.36l7.73,.13c1.74,.03,3.07,.18,3.98,.46,1.22,.38,2.27,1.04,3.13,1.98s1.51,2.08,1.95,3.43c.44,1.35,.64,3,.61,4.96-.03,1.72-.27,3.21-.72,4.45-.55,1.52-1.32,2.74-2.3,3.67-.75,.7-1.75,1.24-3,1.62-.94,.28-2.19,.41-3.75,.38l-7.96-.13,.34-20.95Zm4.17,3.61l-.23,13.88,3.16,.05c1.18,.02,2.04-.03,2.56-.16,.69-.16,1.26-.44,1.72-.84,.46-.4,.84-1.07,1.14-2,.3-.93,.46-2.21,.49-3.83s-.1-2.87-.37-3.74c-.27-.87-.66-1.55-1.17-2.05-.51-.49-1.15-.83-1.94-1.02-.59-.14-1.74-.23-3.47-.26l-1.9-.03Z"/>
      <path class="cls-2" d="M222.63,108.02l2.63-21.38,4.06,1.51-2.07,14.59,8.62-12.15,4.71,1.76-1.67,15,8.13-12.59,3.99,1.49-12.09,17.86-4.21-1.57,1.56-16.14-9.37,13.22-4.3-1.6Z"/>
      <path class="cls-2" d="M247.38,109.85c.75-1.11,1.74-1.99,2.98-2.66,1.24-.67,2.55-.94,3.92-.81s2.67,.61,3.9,1.44c1.91,1.28,3.05,2.95,3.44,5.01s-.06,4.03-1.33,5.92c-1.28,1.91-2.96,3.07-5.03,3.5s-4.04,.01-5.91-1.24c-1.16-.78-2.08-1.78-2.78-3-.7-1.23-.98-2.53-.85-3.9s.69-2.79,1.66-4.23Zm3.3,2.48c-.84,1.25-1.19,2.41-1.04,3.47,.15,1.06,.65,1.89,1.52,2.47,.87,.58,1.82,.74,2.86,.48,1.04-.27,1.98-1.03,2.83-2.3,.83-1.23,1.17-2.38,1.03-3.44-.14-1.06-.65-1.88-1.52-2.47-.87-.58-1.82-.75-2.86-.48s-1.98,1.02-2.82,2.27Z"/>
      <path class="cls-2" d="M260.52,129.44l-2.95-2.73,10.31-11.15,2.74,2.53-1.47,1.58c1.16-.32,2.04-.42,2.63-.31,.59,.11,1.13,.38,1.61,.82,.67,.62,1.15,1.4,1.43,2.35l-3.29,1.73c-.2-.78-.51-1.37-.94-1.76-.41-.38-.87-.59-1.36-.63-.5-.04-1.1,.16-1.82,.61-.71,.44-1.95,1.61-3.7,3.51l-3.18,3.44Z"/>
      <path class="cls-2" d="M265.5,134.41l15.73-13.85,2.65,3.01-15.73,13.85-2.65-3.01Z"/>
      <path class="cls-2" d="M278.2,151.57l-2.06-3.11,1.86-1.23c-1.07-.04-2.01-.29-2.83-.76-.82-.47-1.47-1.06-1.94-1.78-.96-1.45-1.2-3.09-.72-4.9,.48-1.81,1.78-3.41,3.87-4.8,2.14-1.42,4.11-2,5.89-1.73,1.79,.27,3.19,1.17,4.21,2.72,.94,1.41,1.16,3.03,.67,4.84l6.29-4.17,2.22,3.35-17.47,11.57Zm.68-13.31c-1.35,.89-2.2,1.73-2.56,2.5-.52,1.12-.45,2.16,.19,3.13,.51,.77,1.27,1.21,2.29,1.31,1.01,.11,2.17-.27,3.47-1.14,1.45-.96,2.33-1.92,2.62-2.87,.29-.95,.17-1.83-.38-2.65-.53-.79-1.28-1.25-2.27-1.37-.99-.12-2.11,.24-3.36,1.07Z"/>
    </g>
    <g>
      <path class="cls-2" d="M101.27,193.31c-.4,.5-.73,1.04-.98,1.64l-1.45-.86c.11-.31,.26-.62,.45-.91,.04-.06,.37-.52,1.01-1.35-.26-.7-.37-1.47-.32-2.3,.09-1.61,.64-2.84,1.63-3.7,1-.86,2.35-1.24,4.07-1.14,1.71,.1,3.01,.63,3.91,1.6,.9,.97,1.3,2.23,1.21,3.8-.09,1.55-.63,2.75-1.63,3.61s-2.35,1.23-4.06,1.14c-.9-.05-1.69-.22-2.36-.51-.51-.22-1-.55-1.47-1Zm1.29-1.63c.3,.29,.68,.51,1.12,.68s.96,.26,1.54,.29c1.21,.07,2.13-.15,2.75-.65,.63-.5,.96-1.18,1.01-2.04,.05-.86-.21-1.58-.78-2.15-.57-.57-1.46-.89-2.66-.96-1.22-.07-2.15,.15-2.79,.65-.64,.5-.98,1.16-1.02,1.98-.02,.3,.02,.6,.1,.87,.3-.41,.55-.84,.73-1.27l1.17,.66c-.28,.68-.67,1.32-1.18,1.93Z"/>
      <path class="cls-2" d="M100.3,203.13l1.13-.07c-.42-.25-.76-.59-1.03-1.03-.26-.43-.41-.9-.44-1.4-.03-.51,.05-.97,.25-1.39s.49-.73,.89-.94,.95-.33,1.66-.38l4.79-.31,.13,2-3.48,.22c-1.07,.07-1.72,.15-1.95,.24-.24,.09-.42,.24-.54,.44-.13,.2-.18,.46-.16,.75,.02,.34,.14,.64,.34,.9,.21,.26,.45,.43,.73,.51,.28,.08,.97,.09,2.05,.02l3.2-.2,.13,2-7.57,.48-.12-1.86Z"/>
      <path class="cls-2" d="M106.32,209.33l.02-1.85c.76,.08,1.35,.34,1.78,.77,.43,.44,.73,1.14,.89,2.11,.15,.88,.15,1.56,.02,2.03-.14,.47-.35,.82-.64,1.05-.29,.23-.87,.42-1.73,.56l-2.32,.37c-.66,.11-1.14,.22-1.44,.34-.3,.12-.62,.29-.94,.52l-.33-1.96c.12-.07,.31-.17,.55-.29,.11-.05,.19-.09,.22-.11-.39-.28-.69-.6-.92-.96-.23-.36-.38-.75-.45-1.19-.13-.77-.02-1.41,.32-1.93,.34-.51,.83-.82,1.47-.93,.42-.07,.82-.03,1.18,.11s.67,.39,.9,.72c.24,.33,.48,.83,.73,1.5,.33,.9,.6,1.51,.81,1.84l.2-.03c.38-.06,.64-.2,.77-.42,.13-.21,.15-.58,.06-1.1-.06-.35-.17-.62-.35-.79s-.44-.29-.81-.36Zm-1.16,2.92c-.13-.24-.3-.62-.5-1.15-.21-.53-.39-.87-.53-1.02-.23-.23-.48-.32-.76-.27-.28,.05-.5,.19-.67,.43-.17,.24-.22,.52-.17,.84,.06,.36,.23,.68,.52,.96,.22,.21,.46,.33,.73,.36,.18,.02,.5,0,.98-.08l.39-.07Z"/>
      <path class="cls-2" d="M102.61,217.89l10.18-2.49,.48,1.95-10.18,2.49-.48-1.95Z"/>
      <path class="cls-2" d="M103.84,222.6l7.27-2.16,.57,1.92-7.27,2.16-.57-1.92Zm8.26-2.46l1.78-.53,.57,1.92-1.78,.53-.57-1.92Z"/>
      <path class="cls-2" d="M113.64,228.07l-1.51,.54-.46-1.29-2.88,1.03c-.58,.21-.92,.34-1.01,.4-.09,.06-.15,.14-.18,.25-.03,.11-.02,.23,.02,.35,.06,.17,.21,.41,.45,.7l-1.41,.69c-.35-.37-.62-.84-.82-1.39-.12-.34-.17-.67-.16-.98,.02-.32,.09-.57,.23-.76,.14-.19,.35-.37,.64-.53,.21-.12,.64-.3,1.31-.54l3.12-1.12-.31-.87,1.51-.54,.31,.87,1.42-.51,1.78,1.5-2.52,.9,.46,1.29Z"/>
      <path class="cls-2" d="M113.99,229.13l.88,1.95-4.17,3.86,5.64-.59,.85,1.9-7.76,.55-1.4,.1c-.48,.02-.85,0-1.13-.04s-.53-.14-.74-.27c-.22-.13-.43-.32-.62-.56-.2-.24-.38-.54-.53-.88-.16-.35-.28-.71-.35-1.09l1.36-.81c.07,.31,.16,.58,.26,.81,.19,.43,.46,.68,.8,.78s.73,.11,1.17,.04l5.76-5.75Z"/>
      <path class="cls-2" d="M113.83,245.77l8.96-5.43,1.1,1.81-8.96,5.43-1.1-1.81Z"/>
      <path class="cls-2" d="M125.18,244.32l2.29,3.12c.52,.7,.86,1.28,1.02,1.73,.22,.6,.27,1.22,.16,1.84s-.37,1.23-.78,1.81c-.4,.58-1,1.16-1.79,1.74-.7,.51-1.36,.86-1.99,1.06-.77,.24-1.49,.3-2.16,.19-.5-.08-1.02-.32-1.55-.7-.4-.29-.82-.75-1.29-1.38l-2.36-3.21,8.45-6.2Zm-.18,2.75l-5.59,4.11,.93,1.27c.35,.48,.63,.8,.84,.97,.27,.23,.56,.37,.86,.43,.3,.06,.68,.01,1.14-.15,.46-.16,1.02-.48,1.67-.96,.65-.48,1.11-.9,1.38-1.28,.26-.37,.42-.73,.46-1.08,.04-.35-.02-.71-.18-1.08-.12-.28-.44-.76-.95-1.46l-.56-.77Z"/>
      <path class="cls-2" d="M135.21,265.98l1.03,1.89c-1.02,.61-1.98,.86-2.89,.76-.91-.1-1.77-.54-2.59-1.32-1.01-.96-1.5-2.09-1.5-3.4,0-1.31,.58-2.56,1.72-3.75,1.2-1.26,2.47-1.93,3.78-2,1.32-.08,2.51,.39,3.57,1.41,.93,.88,1.42,1.88,1.47,2.98,.04,.65-.15,1.36-.56,2.14l-1.86-1.08c.29-.48,.4-.97,.33-1.47-.07-.5-.3-.94-.71-1.33-.56-.54-1.21-.77-1.94-.7-.73,.07-1.53,.55-2.4,1.46-.92,.96-1.39,1.8-1.44,2.54-.04,.74,.21,1.37,.76,1.89,.41,.39,.88,.59,1.42,.62,.54,.02,1.14-.18,1.8-.62Z"/>
      <path class="cls-2" d="M141.25,269.2l-1.25-1.37c.61-.46,1.22-.68,1.83-.66s1.31,.33,2.09,.93c.71,.54,1.18,1.03,1.4,1.46,.22,.43,.3,.84,.25,1.2-.06,.37-.35,.9-.88,1.59l-1.44,1.85c-.4,.53-.68,.94-.82,1.23s-.25,.63-.33,1.03l-1.58-1.2c.04-.14,.11-.33,.21-.59,.05-.12,.07-.19,.09-.23-.48,.06-.92,.03-1.33-.07-.41-.1-.79-.29-1.15-.56-.62-.47-.98-1.01-1.08-1.62-.1-.61,.04-1.17,.44-1.69,.26-.34,.57-.58,.94-.73,.37-.14,.75-.17,1.15-.09,.4,.08,.92,.28,1.55,.6,.85,.43,1.47,.69,1.85,.79l.12-.16c.23-.31,.32-.58,.27-.83s-.29-.53-.71-.85c-.28-.22-.55-.33-.79-.34-.24,0-.52,.09-.83,.29Zm1.15,2.92c-.26-.09-.64-.25-1.16-.5-.52-.24-.88-.37-1.08-.38-.32-.01-.57,.1-.74,.33-.17,.22-.23,.48-.19,.77,.04,.29,.19,.53,.45,.73,.29,.22,.64,.33,1.04,.34,.3,0,.56-.08,.78-.24,.15-.1,.36-.35,.66-.73l.24-.32Z"/>
      <path class="cls-2" d="M146.14,279.11l-1.69-1.08,4.08-6.4,1.57,1-.58,.91c.54-.26,.97-.39,1.27-.39,.3,0,.59,.09,.86,.26,.39,.25,.69,.59,.91,1.03l-1.47,1.14c-.17-.37-.37-.63-.62-.78-.24-.15-.48-.21-.73-.19-.25,.03-.53,.18-.84,.46-.31,.28-.82,.97-1.51,2.05l-1.26,1.98Z"/>
      <path class="cls-2" d="M156.78,285.07l-1.66-.86,.51-.99c-.48,.24-.95,.36-1.42,.35-.47,0-.9-.11-1.28-.31-.77-.4-1.27-1.06-1.5-1.97-.23-.91-.05-1.92,.53-3.04,.59-1.14,1.31-1.87,2.16-2.18s1.68-.26,2.5,.17c.75,.39,1.24,1.04,1.47,1.95l1.74-3.35,1.78,.93-4.83,9.3Zm-2.93-5.99c-.37,.72-.54,1.29-.51,1.71,.05,.61,.33,1.06,.84,1.32,.41,.21,.85,.22,1.32,.02s.88-.65,1.24-1.34c.4-.77,.55-1.4,.45-1.89s-.37-.84-.81-1.07c-.42-.22-.86-.24-1.32-.05-.46,.19-.86,.62-1.21,1.28Z"/>
      <path class="cls-2" d="M160.25,284.28l1.99,.46c-.06,.39-.01,.73,.16,1.02,.17,.29,.47,.51,.91,.69,.48,.19,.88,.25,1.2,.17,.21-.06,.36-.19,.44-.4,.06-.14,.06-.28,0-.41-.06-.12-.23-.29-.53-.49-1.38-.93-2.21-1.61-2.5-2.04-.41-.6-.48-1.24-.21-1.92,.24-.61,.69-1.03,1.33-1.25,.65-.23,1.48-.14,2.49,.26,.97,.38,1.62,.82,1.97,1.32,.35,.5,.48,1.09,.42,1.78l-1.89-.37c.03-.3-.03-.57-.18-.8-.15-.23-.42-.42-.81-.58-.49-.19-.87-.26-1.14-.21-.18,.04-.3,.14-.36,.29-.05,.13-.04,.27,.05,.41,.12,.19,.63,.6,1.54,1.21,.91,.62,1.49,1.17,1.76,1.65,.26,.49,.27,1.03,.04,1.62-.26,.65-.75,1.1-1.47,1.35-.72,.25-1.62,.17-2.68-.25-.96-.38-1.65-.88-2.05-1.49-.41-.61-.56-1.29-.47-2.02Z"/>
      <path class="cls-2" d="M183.49,292.16l-1.52,1.26c-.52-.41-.99-.92-1.42-1.54-.5,.28-.99,.46-1.5,.54s-1.08,.04-1.72-.09c-1.28-.28-2.16-.84-2.64-1.7-.38-.66-.49-1.35-.33-2.08,.14-.66,.47-1.2,.97-1.64,.5-.44,1.19-.77,2.05-.99-.26-.49-.44-.94-.53-1.36s-.11-.79-.03-1.12c.13-.62,.5-1.09,1.09-1.41s1.34-.38,2.26-.19c.88,.19,1.53,.57,1.93,1.13,.4,.56,.53,1.17,.39,1.82-.09,.41-.3,.78-.63,1.1-.33,.32-.92,.63-1.77,.94l1.02,2.19c.23-.26,.46-.62,.69-1.07l1.69,.79c-.31,.59-.57,1.02-.76,1.28-.19,.26-.39,.48-.58,.64,.17,.25,.41,.54,.7,.86,.29,.32,.51,.54,.66,.65Zm-5.37-4.76c-.5,.13-.9,.33-1.19,.6-.29,.27-.48,.58-.55,.91-.09,.42-.03,.8,.19,1.13,.22,.33,.56,.54,1.03,.64,.31,.07,.62,.07,.93,.01,.31-.06,.66-.19,1.06-.4l-1.46-2.9Zm1.23-1.96l.62-.29c.46-.22,.72-.48,.78-.77,.05-.25,0-.49-.14-.7-.15-.22-.39-.36-.71-.43-.31-.07-.57-.04-.78,.08-.21,.12-.34,.28-.38,.48-.05,.24,.03,.57,.26,.98l.36,.66Z"/>
      <path class="cls-2" d="M191.56,294.41l.29-10.47,3.16,.09,1.7,7.2,2.08-7.09,3.17,.09-.29,10.47-1.96-.05,.23-8.24-2.31,8.19-2.04-.06-1.84-8.3-.23,8.24-1.96-.05Z"/>
      <path class="cls-2" d="M210.77,293.97l-.11-1.13c-.24,.43-.57,.78-.99,1.06-.43,.28-.89,.44-1.39,.49-.51,.05-.97-.02-1.4-.2s-.75-.47-.97-.85-.36-.93-.43-1.65l-.46-4.78,2-.19,.34,3.47c.1,1.06,.2,1.71,.3,1.94s.25,.41,.46,.53c.21,.12,.46,.17,.76,.14,.34-.03,.64-.16,.89-.37s.41-.46,.49-.75c.07-.29,.06-.97-.05-2.05l-.31-3.19,2-.2,.74,7.55-1.86,.18Z"/>
      <path class="cls-2" d="M215.93,293.24l-1.83-10.32,1.98-.35,1.83,10.32-1.98,.35Z"/>
      <path class="cls-2" d="M222.48,284.12l.36,1.56-1.34,.31,.7,2.98c.14,.6,.24,.95,.28,1.04,.05,.09,.13,.16,.23,.21s.22,.05,.35,.02c.18-.04,.43-.17,.74-.37l.52,1.48c-.41,.3-.9,.52-1.48,.65-.35,.08-.68,.1-1,.05s-.55-.16-.73-.31c-.18-.16-.33-.39-.45-.7-.1-.22-.22-.67-.38-1.36l-.75-3.22-.9,.21-.36-1.56,.9-.21-.34-1.47,1.7-1.6,.61,2.61,1.34-.31Z"/>
      <path class="cls-2" d="M223.98,282.63l-.52-1.78,1.93-.56,.52,1.78-1.93,.56Zm2.41,8.27l-2.12-7.29,1.93-.56,2.12,7.29-1.93,.56Z"/>
      <path class="cls-2" d="M235.76,282.07l-1.73,1.03c-.2-.35-.45-.57-.74-.68-.29-.11-.61-.09-.97,.04-.47,.17-.78,.48-.94,.9-.16,.43-.1,1.02,.19,1.78,.32,.84,.68,1.39,1.09,1.63,.41,.24,.86,.27,1.34,.1,.36-.13,.61-.34,.76-.63,.15-.29,.18-.7,.09-1.23l1.97-.38c.12,.92,0,1.7-.39,2.33-.38,.64-1.03,1.13-1.95,1.47-1.04,.39-1.99,.37-2.86-.06-.86-.42-1.51-1.22-1.95-2.38-.44-1.17-.47-2.2-.09-3.09,.38-.88,1.09-1.53,2.15-1.92,.87-.32,1.62-.39,2.27-.21,.65,.18,1.23,.61,1.74,1.29Z"/>
      <path class="cls-2" d="M238.45,282.49c-.3-.6-.44-1.25-.42-1.95s.22-1.34,.62-1.9c.39-.56,.92-1.01,1.59-1.34,1.03-.51,2.04-.6,3.03-.25,.99,.34,1.74,1.02,2.24,2.04,.51,1.03,.6,2.04,.28,3.05-.33,1.01-.99,1.76-2,2.26-.62,.31-1.29,.46-1.99,.46-.71,0-1.34-.2-1.9-.6-.57-.4-1.04-.99-1.43-1.77Zm1.89-.82c.34,.67,.75,1.11,1.25,1.31,.5,.2,.98,.18,1.45-.05,.47-.23,.77-.61,.91-1.12s.04-1.12-.3-1.8c-.33-.67-.74-1.1-1.24-1.3-.5-.2-.98-.18-1.45,.05-.47,.23-.78,.61-.92,1.13s-.05,1.11,.29,1.79Z"/>
      <path class="cls-2" d="M249.64,281.02l-5.38-8.99,1.72-1.03,5.38,8.99-1.72,1.03Z"/>
      <path class="cls-2" d="M251.58,275.33c-.39-.54-.63-1.17-.72-1.86-.09-.7,.01-1.36,.31-1.97s.75-1.14,1.36-1.57c.94-.67,1.92-.91,2.95-.72,1.03,.18,1.87,.74,2.53,1.67,.67,.94,.91,1.93,.75,2.97-.17,1.04-.71,1.89-1.62,2.54-.57,.4-1.2,.66-1.9,.77-.7,.11-1.36,.01-1.97-.29-.62-.3-1.18-.81-1.69-1.52Zm1.74-1.1c.44,.61,.92,.98,1.44,1.1,.52,.12,1,.03,1.42-.28,.43-.3,.67-.72,.73-1.25,.06-.53-.13-1.11-.58-1.73-.43-.61-.91-.97-1.43-1.09-.52-.12-1-.03-1.42,.27-.43,.3-.67,.72-.73,1.25s.13,1.11,.56,1.72Z"/>
      <path class="cls-2" d="M266.54,268.58l-.75-.85c.06,.49,0,.97-.18,1.44-.18,.47-.46,.88-.84,1.21-.38,.34-.8,.56-1.25,.66-.45,.1-.88,.06-1.28-.12-.4-.18-.84-.54-1.32-1.08l-3.18-3.6,1.5-1.33,2.31,2.61c.71,.8,1.17,1.26,1.38,1.39,.21,.13,.44,.19,.68,.16s.47-.14,.7-.33c.26-.23,.42-.5,.5-.82,.08-.32,.06-.62-.05-.89-.11-.27-.52-.82-1.25-1.63l-2.12-2.4,1.5-1.33,5.03,5.68-1.4,1.24Z"/>
      <path class="cls-2" d="M271.74,263.45l-1.38,1.46-5.51-5.22,1.28-1.35,.78,.74c-.15-.58-.2-1.02-.14-1.32,.06-.3,.2-.56,.42-.8,.31-.33,.71-.57,1.18-.7l.84,1.66c-.39,.09-.69,.25-.89,.46-.19,.2-.3,.43-.32,.68-.02,.25,.08,.55,.29,.91,.22,.36,.79,.98,1.73,1.87l1.7,1.61Z"/>
      <path class="cls-2" d="M278.37,255.77l-8.44-6.06,1.23-1.72,7.01,5.03,3.07-4.27,1.43,1.03-4.3,5.99Z"/>
      <path class="cls-2" d="M280.51,243.15l-1.19,1.42c-.54-.54-.83-1.12-.89-1.73s.16-1.34,.65-2.2c.45-.78,.87-1.3,1.27-1.58,.4-.28,.79-.41,1.16-.4s.94,.23,1.69,.66l2.02,1.18c.58,.33,1.02,.55,1.33,.65,.31,.1,.66,.17,1.06,.19l-.99,1.72c-.14-.02-.35-.06-.61-.13-.12-.03-.2-.05-.24-.06,.12,.46,.15,.91,.1,1.33-.05,.42-.18,.83-.4,1.21-.39,.68-.88,1.11-1.47,1.29-.59,.18-1.17,.11-1.73-.21-.37-.21-.65-.49-.84-.84-.19-.34-.27-.72-.24-1.13,.03-.41,.16-.95,.39-1.62,.31-.9,.49-1.55,.54-1.94l-.17-.1c-.33-.19-.62-.25-.86-.16s-.49,.36-.75,.81c-.18,.31-.25,.59-.23,.83,.02,.24,.16,.51,.4,.79Zm2.75-1.52c-.05,.27-.17,.67-.34,1.21-.17,.54-.25,.92-.24,1.12,.03,.32,.17,.55,.42,.69,.24,.14,.51,.17,.79,.09,.28-.08,.5-.26,.66-.54,.18-.31,.25-.67,.2-1.08-.04-.3-.15-.55-.34-.75-.12-.13-.39-.32-.81-.55l-.35-.2Z"/>
      <path class="cls-2" d="M291.86,232.16l-.81,1.84-3.54-1.57c-.75-.33-1.25-.51-1.51-.53-.25-.02-.48,.03-.68,.16-.2,.12-.36,.31-.47,.56-.14,.32-.18,.64-.12,.97,.06,.33,.22,.61,.46,.83s.76,.5,1.53,.85l3.14,1.39-.81,1.84-6.94-3.07,.75-1.71,1.02,.45c-.52-.95-.57-1.89-.16-2.81,.18-.41,.42-.74,.71-1.01,.29-.27,.59-.44,.9-.51,.3-.07,.61-.08,.93-.02s.74,.21,1.28,.45l4.31,1.91Z"/>
      <path class="cls-2" d="M285.65,227.23l.66-2.03,5.69-.07-4.58-3.35,.64-1.98,6.12,4.8,1.11,.86c.37,.3,.64,.57,.81,.79,.17,.22,.3,.46,.37,.7,.07,.24,.1,.52,.09,.83-.02,.31-.08,.65-.2,1.01-.12,.37-.27,.71-.46,1.04l-1.55-.31c.16-.28,.27-.54,.35-.78,.14-.44,.12-.82-.07-1.11-.19-.3-.47-.57-.84-.81l-8.13,.4Z"/>
      <path class="cls-2" d="M291.16,216.75l-.71,1.71c-.67-.36-1.13-.82-1.37-1.38-.24-.56-.25-1.33-.04-2.29,.19-.88,.44-1.5,.74-1.89,.3-.38,.63-.63,.99-.73,.36-.1,.96-.06,1.81,.12l2.29,.52c.65,.14,1.14,.21,1.46,.22s.68-.04,1.07-.14l-.42,1.94c-.14,.02-.35,.04-.62,.06-.12,0-.21,.01-.25,.02,.25,.41,.42,.82,.5,1.23s.07,.84-.02,1.28c-.17,.76-.5,1.32-1.01,1.67s-1.08,.46-1.71,.32c-.42-.09-.77-.27-1.06-.54-.28-.27-.47-.61-.57-1.01-.1-.4-.13-.95-.12-1.66,.03-.95,0-1.62-.07-2.01l-.2-.04c-.38-.08-.67-.05-.87,.1s-.36,.49-.47,1c-.08,.35-.07,.64,.03,.86s.3,.44,.62,.63Zm2.16-2.28c.03,.27,.04,.69,.04,1.26,0,.57,.03,.95,.11,1.14,.13,.29,.33,.47,.61,.53,.27,.06,.53,0,.78-.15s.4-.4,.47-.72c.08-.35,.03-.72-.13-1.09-.12-.28-.31-.48-.55-.61-.16-.09-.47-.18-.94-.29l-.39-.09Z"/>
      <path class="cls-2" d="M298.07,208.1l-.26,1.99-7.53-.99,.24-1.85,1.07,.14c-.46-.38-.76-.71-.89-.99-.13-.27-.17-.57-.13-.89,.06-.45,.24-.87,.55-1.26l1.66,.84c-.26,.31-.41,.6-.45,.89-.04,.28,0,.52,.14,.74s.39,.4,.77,.57c.39,.16,1.22,.33,2.5,.5l2.32,.31Z"/>
      <path class="cls-2" d="M298.97,195.96l-.08,1.86-1.11-.05c.42,.33,.73,.71,.92,1.14,.19,.43,.28,.86,.26,1.29-.04,.87-.42,1.6-1.15,2.19-.73,.59-1.72,.86-2.98,.8-1.29-.06-2.25-.4-2.89-1.03-.64-.63-.94-1.41-.9-2.34,.04-.85,.42-1.56,1.15-2.15l-3.77-.16,.09-2.01,10.47,.45Zm-4.19,5.19c.81,.03,1.4-.05,1.77-.26,.54-.3,.82-.74,.84-1.32,.02-.46-.16-.86-.54-1.2-.38-.34-.96-.53-1.74-.56-.87-.04-1.5,.09-1.9,.39-.4,.3-.61,.69-.63,1.18-.02,.48,.15,.88,.52,1.22,.37,.34,.92,.52,1.67,.56Z"/>
      <path class="cls-2" d="M296.8,193.16l-.42-1.99c.38-.11,.67-.3,.86-.57,.19-.27,.27-.65,.24-1.12-.03-.52-.15-.9-.35-1.15-.14-.17-.33-.25-.55-.23-.15,0-.28,.06-.37,.16-.09,.11-.16,.33-.23,.69-.26,1.64-.53,2.68-.8,3.13-.37,.62-.92,.96-1.65,1-.66,.04-1.22-.19-1.7-.68-.48-.49-.75-1.28-.81-2.37-.06-1.04,.06-1.82,.37-2.34,.31-.52,.79-.9,1.44-1.13l.46,1.87c-.29,.1-.51,.26-.65,.5-.14,.24-.2,.56-.18,.98,.03,.53,.13,.9,.29,1.12,.11,.15,.25,.21,.42,.21,.14,0,.26-.08,.35-.22,.12-.19,.27-.82,.46-1.91s.44-1.84,.76-2.29c.33-.44,.82-.68,1.46-.71,.69-.04,1.31,.22,1.84,.77,.53,.55,.83,1.4,.9,2.53,.06,1.03-.1,1.86-.49,2.49-.38,.63-.93,1.05-1.64,1.28Z"/>
    </g>
    <circle class="cls-2" cx="200" cy="195.22" r="83.62"/>
    <path class="cls-8" d="M144.57,215.87v-56.17c0-6.96,2.87-12.65,8.62-17.07s13.2-6.62,22.37-6.62c10.87,0,19.23,3.67,25.08,11.02,3.57-3.96,7.4-6.78,11.49-8.48,4.09-1.69,9.14-2.54,15.14-2.54,9.52,0,16.82,2.21,21.9,6.62,5.07,4.41,7.61,10.77,7.61,19.07v54.17h-31.53v-50.69c0-2.51-.27-4.17-.82-4.99-.54-.82-1.64-1.23-3.3-1.23-3.11,0-4.66,1.94-4.66,5.82v51.09h-31.53v-50.69c0-2.47-.28-4.13-.85-4.97-.57-.84-1.68-1.26-3.34-1.26-3.11,0-4.66,2.07-4.66,6.22v50.69h-31.53Z"/>
    <g class="cls-6">
      <circle class="cls-1" cx="203.12" cy="208.56" r="58.55"/>
    </g>
    <rect class="cls-9" x="144.57" y="218.31" width="112.22" height="21.96"/>
    <g>
      <path class="cls-2" d="M163.59,235.79v-9.38c0-1.16,.35-2.11,1.06-2.85,.71-.74,1.62-1.11,2.74-1.11,1.33,0,2.36,.61,3.08,1.84,.44-.66,.91-1.13,1.41-1.42,.5-.28,1.12-.42,1.86-.42,1.17,0,2.06,.37,2.69,1.11,.62,.74,.93,1.8,.93,3.18v9.04h-3.87v-8.46c0-.42-.03-.7-.1-.83s-.2-.21-.4-.21c-.38,0-.57,.32-.57,.97v8.53h-3.87v-8.46c0-.41-.03-.69-.1-.83-.07-.14-.21-.21-.41-.21-.38,0-.57,.35-.57,1.04v8.46h-3.87Z"/>
      <path class="cls-2" d="M190.15,227.85v2.9h-2.53c-.34,0-.59,.05-.73,.15-.14,.1-.21,.27-.21,.51,0,.27,.07,.45,.22,.54s.44,.13,.9,.13h2.6v3.72h-3.04c-1.43,0-2.52-.34-3.28-1.02-.76-.68-1.13-1.67-1.13-2.96v-5.1c0-1.25,.36-2.21,1.07-2.9,.71-.69,1.72-1.03,3.02-1.03h3.36v3.74h-2.47c-.67,0-1,.22-1,.65,0,.25,.08,.43,.24,.53,.16,.1,.44,.15,.85,.15h2.13Z"/>
      <path class="cls-2" d="M201.8,226.52v9.27h-3.87v-9.27h-2.96v-3.74h9.79v3.74h-2.95Z"/>
      <path class="cls-2" d="M213.56,226.29v9.51h-3.87v-13.01h4.96c1.51,0,2.68,.37,3.52,1.12,.93,.84,1.39,1.9,1.39,3.19s-.58,2.42-1.72,3.33l2.23,5.37h-4.06l-1.88-4.19v-3.34h.3c.81,0,1.22-.35,1.22-1.05,0-.62-.47-.92-1.41-.92h-.69Z"/>
      <path class="cls-2" d="M231.04,222.46c1.84,0,3.42,.67,4.74,2.01,1.32,1.34,1.98,2.94,1.98,4.81s-.66,3.51-1.99,4.84c-1.33,1.33-2.94,1.99-4.84,1.99s-3.5-.67-4.83-2-2-2.95-2-4.83,.67-3.52,2.01-4.84c1.34-1.32,2.99-1.98,4.93-1.98Zm-.11,3.83c-.79,0-1.47,.29-2.03,.88-.56,.58-.84,1.29-.84,2.12s.28,1.53,.84,2.12c.56,.58,1.24,.88,2.02,.88s1.48-.29,2.03-.87c.56-.58,.83-1.29,.83-2.12s-.28-1.54-.83-2.12c-.56-.58-1.23-.87-2.03-.87Z"/>
    </g>
    <polygon class="cls-3" points="104.32 167.23 107.64 165.48 107.01 169.18 109.69 171.8 105.98 172.34 104.32 175.71 102.66 172.34 98.94 171.8 101.63 169.18 100.99 165.48 104.32 167.23"/>
    <polygon class="cls-3" points="294.59 167.23 297.92 165.48 297.28 169.18 299.97 171.8 296.26 172.34 294.59 175.71 292.93 172.34 289.22 171.8 291.91 169.18 291.27 165.48 294.59 167.23"/>
    <g>
      <path class="cls-9" d="M164.3,254.47l2.06-.2c.12,.69,.38,1.2,.75,1.52,.38,.32,.89,.49,1.53,.49,.68,0,1.19-.14,1.54-.43,.35-.29,.52-.62,.52-1.01,0-.25-.07-.46-.22-.63s-.4-.33-.76-.45c-.25-.09-.81-.24-1.69-.46-1.13-.28-1.93-.63-2.39-1.04-.64-.58-.96-1.28-.96-2.11,0-.53,.15-1.03,.45-1.5,.3-.46,.74-.82,1.31-1.06,.57-.24,1.26-.37,2.06-.37,1.31,0,2.3,.29,2.97,.87s1.01,1.35,1.05,2.31l-2.12,.09c-.09-.54-.28-.93-.58-1.16-.3-.24-.74-.35-1.34-.35s-1.1,.13-1.44,.38c-.22,.16-.34,.38-.34,.65,0,.25,.1,.46,.31,.64,.27,.22,.92,.46,1.94,.7,1.03,.24,1.79,.49,2.28,.75s.88,.61,1.16,1.06,.42,1.01,.42,1.67c0,.6-.17,1.16-.5,1.69-.33,.52-.81,.91-1.42,1.17s-1.37,.38-2.28,.38c-1.32,0-2.34-.31-3.05-.92s-1.13-1.5-1.27-2.68Z"/>
      <path class="cls-9" d="M174.59,249.26v-1.86h2.01v1.86h-2.01Zm0,8.62v-7.59h2.01v7.59h-2.01Z"/>
      <path class="cls-9" d="M185.56,257.88h-2.01v-3.87c0-.82-.04-1.35-.13-1.59-.09-.24-.23-.43-.42-.56-.19-.13-.43-.2-.7-.2-.35,0-.66,.09-.94,.29-.28,.19-.47,.44-.57,.76s-.15,.9-.15,1.74v3.44h-2.01v-7.59h1.87v1.12c.66-.86,1.5-1.29,2.5-1.29,.44,0,.85,.08,1.22,.24,.37,.16,.64,.36,.83,.61,.19,.25,.32,.53,.39,.84,.07,.31,.11,.76,.11,1.35v4.72Z"/>
      <path class="cls-9" d="M194.21,252.53l-1.98,.36c-.07-.4-.22-.69-.45-.89s-.54-.3-.92-.3c-.5,0-.9,.17-1.2,.52-.3,.35-.45,.92-.45,1.73,0,.9,.15,1.54,.45,1.91,.3,.37,.71,.56,1.22,.56,.38,0,.69-.11,.94-.33,.24-.22,.41-.59,.51-1.12l1.97,.34c-.21,.91-.6,1.59-1.18,2.05-.58,.46-1.36,.69-2.34,.69-1.11,0-2-.35-2.66-1.05-.66-.7-.99-1.67-.99-2.91s.33-2.23,.99-2.93c.66-.7,1.56-1.05,2.69-1.05,.92,0,1.66,.2,2.2,.6,.55,.4,.94,1,1.18,1.82Z"/>
      <path class="cls-9" d="M200.13,255.46l2,.34c-.26,.73-.66,1.29-1.22,1.68-.56,.38-1.25,.58-2.08,.58-1.32,0-2.3-.43-2.93-1.29-.5-.69-.75-1.56-.75-2.62,0-1.26,.33-2.24,.99-2.96,.66-.71,1.49-1.07,2.49-1.07,1.13,0,2.02,.37,2.67,1.12,.65,.75,.96,1.89,.94,3.43h-5.03c.01,.6,.18,1.06,.49,1.39s.7,.5,1.16,.5c.31,0,.58-.09,.79-.26,.21-.17,.38-.45,.49-.83Zm.11-2.03c-.01-.58-.16-1.02-.45-1.33-.29-.3-.63-.45-1.04-.45-.44,0-.8,.16-1.09,.48-.29,.32-.43,.75-.42,1.3h3Z"/>
      <path class="cls-9" d="M212.65,257.88h-2.01v-7.57c-.73,.69-1.6,1.19-2.59,1.52v-1.82c.52-.17,1.09-.5,1.71-.97,.61-.48,1.04-1.04,1.26-1.68h1.63v10.52Z"/>
      <path class="cls-9" d="M215.7,255.45l1.94-.21c.05,.4,.17,.69,.37,.88s.46,.29,.79,.29c.42,0,.77-.19,1.06-.57,.29-.38,.48-1.17,.56-2.37-.5,.59-1.14,.88-1.89,.88-.82,0-1.54-.32-2.13-.95-.6-.64-.9-1.46-.9-2.48s.32-1.92,.95-2.57c.63-.65,1.44-.98,2.41-.98,1.06,0,1.93,.41,2.62,1.23,.68,.82,1.02,2.17,1.02,4.06s-.35,3.3-1.06,4.15c-.71,.85-1.63,1.27-2.77,1.27-.82,0-1.48-.22-1.99-.65-.5-.44-.83-1.09-.97-1.96Zm4.54-4.39c0-.65-.15-1.15-.45-1.51s-.64-.54-1.03-.54-.68,.15-.93,.44c-.25,.29-.37,.77-.37,1.44s.13,1.17,.4,1.49c.27,.32,.6,.48,1,.48s.71-.15,.98-.46c.26-.3,.4-.75,.4-1.34Z"/>
      <path class="cls-9" d="M223.84,255.45l1.94-.21c.05,.4,.17,.69,.37,.88s.46,.29,.79,.29c.42,0,.77-.19,1.06-.57,.29-.38,.48-1.17,.56-2.37-.5,.59-1.14,.88-1.89,.88-.82,0-1.54-.32-2.13-.95-.6-.64-.9-1.46-.9-2.48s.32-1.92,.95-2.57c.63-.65,1.44-.98,2.41-.98,1.06,0,1.93,.41,2.62,1.23,.68,.82,1.02,2.17,1.02,4.06s-.35,3.3-1.06,4.15c-.71,.85-1.63,1.27-2.77,1.27-.82,0-1.48-.22-1.99-.65-.5-.44-.83-1.09-.97-1.96Zm4.54-4.39c0-.65-.15-1.15-.45-1.51s-.64-.54-1.03-.54-.68,.15-.93,.44c-.25,.29-.37,.77-.37,1.44s.13,1.17,.4,1.49c.27,.32,.6,.48,1,.48s.71-.15,.98-.46c.26-.3,.4-.75,.4-1.34Z"/>
      <path class="cls-9" d="M237.07,257.88h-2.01v-7.57c-.73,.69-1.6,1.19-2.59,1.52v-1.82c.52-.17,1.09-.5,1.71-.97,.61-.48,1.04-1.04,1.26-1.68h1.63v10.52Z"/>
    </g>
  </g>
  <rect class="cls-7" width="400" height="400"/>
</svg>