<svg width="143" height="81" viewBox="0 0 143 81" fill="none" xmlns="http://www.w3.org/2000/svg">
<path fill-rule="evenodd" clip-rule="evenodd" d="M0 18.6694L35.7976 37.5299L35.852 0L0 18.6694ZM31.2503 29.9977L9.83829 18.7349C10.9146 17.932 23.7522 11.3775 26.0439 10.1868C27.2715 9.54772 30.2405 7.81077 31.335 7.53221L31.2503 29.9977Z" fill="#B0B0B0"/>
<path fill-rule="evenodd" clip-rule="evenodd" d="M39.9455 4.86652L39.1594 42.2927L75.4709 24.0439L39.9455 4.86652ZM44.8132 12.6991C46.1133 13.158 58.7029 20.0893 60.9765 21.3183C62.192 21.9792 65.3182 23.4704 66.1164 24.1968L44.3597 35.0718L44.8132 12.6991Z" fill="white"/>
<path fill-rule="evenodd" clip-rule="evenodd" d="M39.2513 42.4624L74.9219 61.7217L75.5689 24.2136L39.2513 42.4624ZM70.3565 54.1185L49.0352 42.5552L70.7012 31.7021C70.9128 32.9474 70.5802 46.264 70.5379 48.6564C70.5198 49.9345 70.6528 53.1244 70.3565 54.1185Z" fill="#EE565D"/>
<path fill-rule="evenodd" clip-rule="evenodd" d="M39.135 42.6262L38.3912 80.0578L74.8176 61.8855L39.135 42.6262ZM43.6943 49.9563C44.9944 50.4151 57.5961 57.3301 59.8637 58.559C61.0791 59.2145 64.2054 60.7056 65.0096 61.4376L43.265 72.3344L43.6943 49.9563Z" fill="#B0B0B0"/>
<path fill-rule="evenodd" clip-rule="evenodd" d="M2.36395 60.7603L38.1857 80.0524L38.9295 42.6207L2.36395 60.7603ZM33.6566 72.2853L12.3353 60.733L33.9952 49.8744C34.2068 51.1197 33.8803 64.4363 33.838 66.8287C33.8198 68.1013 33.9589 71.2967 33.6566 72.2853Z" fill="white"/>
<path fill-rule="evenodd" clip-rule="evenodd" d="M3.21127 23.4048L2.58844 60.8365L38.8214 42.4566L3.21127 23.4048ZM8.15157 30.6803C9.45165 31.1337 22.0534 38.0541 24.3209 39.2831C25.5364 39.9386 28.6626 41.4297 29.4668 42.1616L7.72225 53.0585L8.15157 30.6803Z" fill="#EE565D"/>
<path d="M91.1744 35.3992H89.052L86.0285 31.7287H84.6559V35.3992H82.7753V24.5569H84.3596H86.3309C87.9152 24.5569 88.8403 25.1414 89.3241 25.6384C89.9529 26.2666 90.2916 27.146 90.2916 28.151C90.2916 29.1451 89.9529 30.0245 89.3241 30.6526C89.0338 30.9476 88.5803 31.2808 87.9333 31.4829L91.1744 35.3992ZM86.3309 30.2102C87.1049 30.2102 87.6914 30.0081 88.0603 29.6258C88.5138 29.1888 88.5924 28.5716 88.5924 28.151C88.5924 27.714 88.5138 27.0968 88.0603 26.6599C87.6854 26.2775 87.1049 26.0918 86.3309 26.0918H84.6498V30.2157H86.3309V30.2102Z" fill="#EE565D"/>
<path d="M97.6108 31.8609L100.767 24.7165H102.805L97.6592 36.0448L92.1565 24.7165H94.2306L97.6108 31.8609Z" fill="#EE565D"/>
<path d="M113.754 31.2156V34.1542L113.33 34.4164C113.312 34.4164 113.312 34.4164 113.3 34.4328C113.282 34.4492 113.252 34.4601 113.234 34.4601C113.215 34.4765 113.203 34.4874 113.185 34.4874C113.167 34.5038 113.155 34.5202 113.119 34.5202C113.1 34.5366 113.088 34.5475 113.052 34.5639C113.034 34.5802 113.022 34.5802 113.004 34.5966C112.986 34.613 112.974 34.613 112.955 34.6239C112.925 34.6403 112.907 34.6403 112.877 34.6513C112.859 34.6676 112.847 34.6676 112.828 34.6786C112.81 34.6895 112.78 34.7059 112.75 34.7059C112.732 34.7223 112.732 34.7223 112.72 34.7386C112.701 34.7386 112.701 34.7386 112.689 34.7386C112.671 34.755 112.641 34.766 112.611 34.7823C112.58 34.7987 112.532 34.8097 112.496 34.826C112.496 34.826 112.496 34.826 112.478 34.8424C111.8 35.121 111.087 35.2685 110.325 35.3122C110.325 35.3122 110.325 35.3122 110.307 35.3122C110.277 35.3122 110.228 35.3122 110.18 35.3122H110.162C110.113 35.3122 110.065 35.3122 110.017 35.3122C109.37 35.3122 108.723 35.2248 108.124 35.0336C108.106 35.0336 108.106 35.0336 108.106 35.0336C108.039 35.0172 107.991 34.9899 107.93 34.9735C107.852 34.9407 107.767 34.9134 107.689 34.8861C107.477 34.8151 107.283 34.7277 107.108 34.6239C106.624 34.3891 106.171 34.0832 105.784 33.7172C105.233 33.2202 104.798 32.6521 104.49 31.9912C104.266 31.4942 104.103 30.9698 104.054 30.4291C104.036 30.2543 104.024 30.0631 104.024 29.8883C104.024 29.8009 104.024 29.6971 104.024 29.6098C104.072 28.9816 104.218 28.3535 104.496 27.769C104.804 27.1245 105.24 26.5401 105.79 26.043C106.34 25.546 106.969 25.1527 107.701 24.8905C108.426 24.5956 109.224 24.4645 110.029 24.4645C110.077 24.4645 110.125 24.4645 110.174 24.4645C110.222 24.4645 110.271 24.4645 110.301 24.4645C110.319 24.4645 110.319 24.4645 110.319 24.4645C110.367 24.4645 110.416 24.4645 110.464 24.4809C111.159 24.5246 111.837 24.672 112.49 24.9342C112.49 24.9342 112.49 24.9506 112.508 24.9506C112.538 24.967 112.574 24.9779 112.605 24.9943C112.623 24.9943 112.623 24.9943 112.623 24.9943V26.9989C112.381 26.8077 112.103 26.6602 111.812 26.5291C111.571 26.4254 111.311 26.338 111.069 26.2779C111.051 26.2779 111.038 26.2779 111.02 26.2615C111.002 26.2615 110.99 26.2615 110.972 26.2615C110.954 26.2451 110.942 26.2451 110.905 26.2451C110.905 26.2451 110.887 26.2451 110.875 26.2287C110.809 26.2123 110.73 26.2123 110.664 26.2014C110.645 26.2014 110.645 26.2014 110.633 26.2014C110.621 26.2014 110.585 26.185 110.567 26.185C110.549 26.185 110.549 26.185 110.537 26.185C110.518 26.185 110.488 26.185 110.47 26.1686C110.452 26.1686 110.44 26.1686 110.422 26.1686C110.391 26.1686 110.355 26.1686 110.325 26.1686C110.307 26.1686 110.295 26.1523 110.277 26.1523C110.258 26.1523 110.246 26.1523 110.228 26.1523C110.21 26.1523 110.18 26.1523 110.162 26.1523C110.144 26.1523 110.131 26.1523 110.131 26.1523C110.101 26.1523 110.053 26.1523 110.017 26.1523C109.255 26.1523 108.529 26.327 107.894 26.6766C107.876 26.693 107.846 26.7039 107.816 26.7203C107.556 26.8678 107.314 27.0426 107.102 27.2447C107.035 27.3048 106.957 27.3594 106.89 27.4358C106.89 27.4358 106.89 27.4522 106.872 27.4522C106.794 27.5396 106.727 27.627 106.661 27.7144C106.642 27.7308 106.63 27.7417 106.63 27.7417C106.6 27.7854 106.564 27.8291 106.534 27.8728C106.515 27.8892 106.503 27.9165 106.503 27.9329C106.261 28.2825 106.098 28.6484 106.001 29.0417C105.983 29.0581 105.983 29.0581 105.983 29.069C105.953 29.2165 105.917 29.364 105.905 29.506C105.905 29.5661 105.905 29.6207 105.905 29.6644C105.887 29.7354 105.887 29.7955 105.887 29.8719C105.887 29.932 105.887 29.9866 105.905 30.0631C105.923 30.3417 105.971 30.6202 106.05 30.8824C106.243 31.4942 106.6 32.0513 107.102 32.5047C107.876 33.2038 108.916 33.6025 110.017 33.6025C110.047 33.6025 110.095 33.6025 110.131 33.6025C110.15 33.6025 110.162 33.6025 110.18 33.5861C110.198 33.5861 110.228 33.5861 110.246 33.5861C110.264 33.5861 110.277 33.5861 110.295 33.5861C110.313 33.5861 110.325 33.5861 110.343 33.5861C110.373 33.5861 110.391 33.5861 110.422 33.5861C110.422 33.5698 110.44 33.5698 110.452 33.5698C110.47 33.5698 110.5 33.5698 110.518 33.5698C110.537 33.5698 110.537 33.5698 110.549 33.5698C110.664 33.5534 110.791 33.5261 110.905 33.5097C110.924 33.5097 110.924 33.5097 110.936 33.4933C110.954 33.4933 110.984 33.4933 111.002 33.4769C111.02 33.4769 111.032 33.4769 111.051 33.4769C111.069 33.4605 111.081 33.4605 111.099 33.4605C111.117 33.4441 111.147 33.4441 111.165 33.4441C111.184 33.4441 111.196 33.4278 111.196 33.4278C111.419 33.3677 111.649 33.2967 111.861 33.1929C111.861 33.1929 111.861 33.1929 111.879 33.1929V31.1883H109.611V29.6535H113.754V31.2156Z" fill="#EE565D"/>
<path d="M92.1614 52.551V46.794L88.4063 51.8519L84.6391 46.794V52.551H82.7585V41.2117L88.4063 48.8095L94.0541 41.2117V52.551H92.1614Z" fill="#EE565D"/>
<path d="M102.913 50.2234H98.6374L97.6215 52.5448H95.5475L100.772 41.2055L105.984 52.5448H103.928L102.913 50.2234ZM102.235 48.7049L100.778 45.4004L99.3207 48.7049H102.235Z" fill="#EE565D"/>
<path d="M115.417 43.2279H112.116V52.5517H110.223V43.2279H106.921V41.7095H115.417V43.2279Z" fill="#EE565D"/>
<path d="M125.288 52.5517H123.165L120.142 48.8812H118.769V52.5517H116.889V41.7095H118.473H120.444C122.028 41.7095 122.954 42.2939 123.437 42.791C124.066 43.4191 124.405 44.2985 124.405 45.3035C124.405 46.2976 124.066 47.177 123.437 47.8052C123.147 48.1001 122.694 48.4333 122.047 48.6409L125.288 52.5517ZM120.45 47.3627C121.224 47.3627 121.811 47.1552 122.18 46.7783C122.633 46.3413 122.712 45.7241 122.712 45.3035C122.712 44.8666 122.633 44.2493 122.18 43.8124C121.805 43.43 121.224 43.2443 120.45 43.2443H118.769V47.3682H120.45V47.3627Z" fill="#EE565D"/>
<path d="M127.028 52.561V41.7188H128.909V52.561H127.028Z" fill="#EE565D"/>
<path d="M140.18 51.655C139.871 51.8298 139.551 51.9937 139.212 52.1248C138.468 52.4033 137.676 52.5508 136.866 52.5508C136.056 52.5508 135.264 52.4033 134.538 52.1248C133.812 51.8462 133.177 51.4529 132.627 50.9559C132.077 50.4588 131.641 49.8908 131.333 49.2299C131.025 48.5744 130.861 47.8534 130.861 47.127C130.861 46.395 131.025 45.6795 131.333 45.0077C131.641 44.3632 132.077 43.7787 132.627 43.2817C133.177 42.7846 133.806 42.3913 134.538 42.1292C135.264 41.8342 136.062 41.7031 136.866 41.7031C137.676 41.7031 138.468 41.8342 139.212 42.1292C139.291 42.1565 139.387 42.2002 139.472 42.2329V44.2375C138.747 43.6968 137.839 43.4073 136.866 43.4073C135.765 43.4073 134.731 43.7896 133.951 44.5052C133.177 45.2043 132.736 46.1438 132.736 47.1379C132.736 48.132 133.171 49.066 133.951 49.7706C134.725 50.4698 135.765 50.863 136.866 50.863C137.966 50.863 139 50.4698 139.781 49.7706C139.926 49.6395 140.053 49.5084 140.186 49.361V51.655H140.18Z" fill="#EE565D"/>
<path d="M85.8839 61.2634V62.547L85.6964 62.6617C85.6904 62.6617 85.6904 62.6617 85.6843 62.6672C85.6783 62.6727 85.6662 62.6781 85.6541 62.6781C85.6481 62.6836 85.642 62.6891 85.636 62.6891C85.6299 62.6945 85.6239 62.7 85.6057 62.7C85.5997 62.7054 85.5936 62.7109 85.5755 62.7164C85.5695 62.7218 85.5634 62.7218 85.5574 62.7273C85.5513 62.7328 85.5453 62.7327 85.5332 62.7382C85.5211 62.7437 85.515 62.7437 85.4969 62.7491C85.4908 62.7546 85.4848 62.7546 85.4727 62.7601C85.4666 62.7655 85.4546 62.771 85.4364 62.771C85.4304 62.7764 85.4304 62.7764 85.4243 62.7819C85.4183 62.7819 85.4183 62.7819 85.4122 62.7819C85.4062 62.7874 85.388 62.7928 85.3759 62.8038C85.3638 62.8092 85.3397 62.8147 85.3276 62.8201C85.3276 62.8201 85.3276 62.8201 85.3215 62.8256C85.0252 62.9458 84.7108 63.0113 84.3782 63.0277C84.3782 63.0277 84.3782 63.0277 84.3722 63.0277C84.3601 63.0277 84.3359 63.0277 84.3177 63.0277H84.3117C84.2875 63.0277 84.2694 63.0277 84.2452 63.0277C83.961 63.0277 83.6768 62.9895 83.4168 62.9075C83.4107 62.9075 83.4107 62.9075 83.4107 62.9075C83.3805 62.9021 83.3623 62.8857 83.3321 62.8802C83.2958 62.8693 83.2595 62.8529 83.2233 62.842C83.1325 62.8092 83.0479 62.771 82.9693 62.7273C82.7577 62.6235 82.5581 62.4924 82.3888 62.3286C82.1469 62.1101 81.9594 61.8643 81.8204 61.5748C81.7236 61.3563 81.6511 61.1269 81.6269 60.892C81.6208 60.8156 81.6148 60.7336 81.6148 60.6572C81.6148 60.6189 81.6148 60.5752 81.6148 60.537C81.639 60.2639 81.6994 59.9853 81.8204 59.7286C81.9534 59.45 82.1469 59.1933 82.3888 58.9748C82.6307 58.7564 82.9088 58.587 83.2233 58.4669C83.5437 58.3412 83.8884 58.2812 84.2452 58.2812C84.2694 58.2812 84.2875 58.2812 84.3117 58.2812H84.3177C84.3359 58.2812 84.3601 58.2812 84.3722 58.2812C84.3782 58.2812 84.3782 58.2812 84.3782 58.2812C84.4024 58.2812 84.4205 58.2812 84.4447 58.2866C84.7471 58.303 85.0494 58.3685 85.3276 58.4833C85.3276 58.4833 85.3276 58.4887 85.3336 58.4887C85.3457 58.4942 85.3638 58.4996 85.3759 58.5106C85.382 58.5106 85.382 58.5106 85.382 58.5106V59.3845C85.2731 59.3026 85.1522 59.237 85.0252 59.1824C84.9224 59.1387 84.8075 59.1005 84.6987 59.0732C84.6926 59.0732 84.6866 59.0732 84.6806 59.0677C84.6745 59.0677 84.6685 59.0677 84.6564 59.0677C84.6503 59.0622 84.6443 59.0622 84.6261 59.0622C84.6261 59.0622 84.6201 59.0622 84.614 59.0568C84.5838 59.0513 84.5536 59.0513 84.5233 59.0458C84.5173 59.0458 84.5173 59.0458 84.5112 59.0458C84.5052 59.0458 84.4871 59.0404 84.481 59.0404C84.475 59.0404 84.475 59.0404 84.4689 59.0404C84.4629 59.0404 84.4447 59.0404 84.4387 59.0349C84.4326 59.0349 84.4266 59.0349 84.4145 59.0349C84.4024 59.0349 84.3842 59.0349 84.3722 59.0349C84.3661 59.0349 84.3601 59.0295 84.354 59.0295C84.348 59.0295 84.3419 59.0295 84.3298 59.0295C84.3238 59.0295 84.3117 59.0295 84.2996 59.0295C84.2935 59.0295 84.2875 59.0295 84.2875 59.0295C84.2754 59.0295 84.2512 59.0295 84.2391 59.0295C83.9065 59.0295 83.5861 59.1059 83.3139 59.2589C83.3079 59.2643 83.2898 59.2698 83.2777 59.2753C83.1628 59.3408 83.06 59.4173 82.9632 59.5047C82.933 59.532 82.9028 59.5538 82.8725 59.5866C82.8725 59.5866 82.8725 59.5921 82.8665 59.5921C82.8302 59.6303 82.8 59.6685 82.7758 59.7068C82.7697 59.7122 82.7637 59.7177 82.7637 59.7177C82.7516 59.7395 82.7335 59.7559 82.7214 59.7778C82.7153 59.7832 82.7093 59.7942 82.7093 59.8051C82.6004 59.958 82.5339 60.1164 82.4916 60.2912C82.4855 60.2967 82.4855 60.2967 82.4855 60.3021C82.4734 60.3677 82.4553 60.4277 82.4492 60.4933C82.4492 60.5206 82.4492 60.5425 82.4492 60.5643C82.4432 60.5971 82.4432 60.6189 82.4432 60.6517C82.4432 60.679 82.4432 60.7009 82.4492 60.7336C82.4553 60.8538 82.4795 60.9794 82.5097 61.0941C82.5944 61.3618 82.7516 61.6076 82.9693 61.8042C83.3079 62.1101 83.7614 62.2849 84.2452 62.2849C84.2573 62.2849 84.2815 62.2849 84.2936 62.2849C84.2996 62.2849 84.3056 62.2849 84.3177 62.2794C84.3238 62.2794 84.3359 62.2794 84.348 62.2794C84.354 62.2794 84.3601 62.2794 84.3661 62.2794C84.3722 62.2794 84.3782 62.2794 84.3903 62.2794C84.4024 62.2794 84.4085 62.2794 84.4266 62.2794C84.4266 62.2739 84.4326 62.2739 84.4387 62.2739C84.4447 62.2739 84.4568 62.2739 84.4689 62.2739C84.475 62.2739 84.475 62.2739 84.481 62.2739C84.5294 62.2685 84.5838 62.2521 84.6382 62.2466C84.6443 62.2466 84.6443 62.2466 84.6503 62.2412C84.6564 62.2412 84.6685 62.2412 84.6806 62.2357C84.6866 62.2357 84.6926 62.2357 84.6987 62.2357C84.7047 62.2302 84.7108 62.2302 84.7229 62.2302C84.7289 62.2248 84.741 62.2248 84.7531 62.2248C84.7592 62.2248 84.7652 62.2193 84.7652 62.2193C84.862 62.192 84.9648 62.1647 85.0555 62.1155C85.0555 62.1155 85.0555 62.1155 85.0615 62.1155V61.2416H84.0698V60.5698H85.8839V61.2634Z" fill="#D2D0CF"/>
<path d="M89.6874 62.0883H87.8189L87.3714 63.1043H86.4644L88.7501 58.1393L91.0298 63.1043H90.1288L89.6874 62.0883ZM89.3911 61.422L88.7561 59.9745L88.1212 61.422H89.3911Z" fill="#D2D0CF"/>
<path d="M94.8288 59.012H93.3836V63.0922H92.5551V59.012H91.1099V58.3457H94.8288V59.012Z" fill="#D2D0CF"/>
<path d="M99.0308 63.1204H98.2084V61.0722H96.1101V63.1204H95.2878V58.3739H96.1101V60.4003H98.2084V58.3739H99.0308V63.1204Z" fill="#D2D0CF"/>
<path d="M100.754 60.2792H102.671V60.9511H100.754V62.4204H103.082V63.0922H100.748H99.9315V58.3457H100.748H103.082V59.012H100.754V60.2792Z" fill="#D2D0CF"/>
<path d="M107.478 63.1051H106.553L105.229 61.4992H104.624V63.1051H103.801V58.3585H104.497H105.362C106.057 58.3585 106.462 58.6152 106.674 58.8337C106.952 59.1068 107.097 59.4946 107.097 59.9316C107.097 60.3686 106.952 60.7509 106.674 61.024C106.547 61.1551 106.347 61.2971 106.063 61.39L107.478 63.1051ZM105.362 60.8328C105.7 60.8328 105.954 60.7454 106.117 60.5761C106.317 60.385 106.353 60.1173 106.353 59.9316C106.353 59.7404 106.317 59.4728 106.117 59.2761C105.954 59.1123 105.7 59.0249 105.362 59.0249H104.624V60.8274H105.362V60.8328Z" fill="#D2D0CF"/>
<path d="M113.525 59.0351H112.08V63.1153H111.252V59.0351H109.807V58.3687H113.525V59.0351Z" fill="#D2D0CF"/>
<path d="M115.526 62.8526C115.206 62.7324 114.934 62.5576 114.692 62.3391C114.45 62.1206 114.262 61.8748 114.123 61.5853C113.99 61.2959 113.918 60.9845 113.918 60.6623C113.918 60.3455 113.99 60.0287 114.123 59.7337C114.256 59.4551 114.45 59.2039 114.692 58.9799C114.934 58.7615 115.212 58.5976 115.526 58.472C115.847 58.3518 116.191 58.2863 116.548 58.2863C116.905 58.2863 117.249 58.3518 117.576 58.472C117.89 58.5921 118.163 58.7615 118.41 58.9799C118.652 59.2039 118.834 59.4551 118.973 59.7337C119.106 60.0287 119.178 60.34 119.178 60.6623C119.178 60.9845 119.106 61.2959 118.973 61.5853C118.84 61.8748 118.652 62.1206 118.41 62.3391C118.163 62.5576 117.884 62.7324 117.576 62.8526C117.249 62.9727 116.905 63.0383 116.548 63.0383C116.191 63.0383 115.847 62.9727 115.526 62.8526ZM115.272 59.5152C114.934 59.8211 114.74 60.2308 114.74 60.6677C114.74 61.1047 114.934 61.5143 115.272 61.8202C115.611 62.1261 116.064 62.3009 116.548 62.3009C117.032 62.3009 117.485 62.1261 117.824 61.8202C118.163 61.5143 118.356 61.1047 118.356 60.6677C118.356 60.2308 118.163 59.8266 117.824 59.5152C117.485 59.2093 117.032 59.0346 116.548 59.0346C116.064 59.0346 115.611 59.2093 115.272 59.5152Z" fill="#D2D0CF"/>
<path d="M124.699 63.1047H122.498H121.681V58.3582H122.504V62.4329H124.699V63.1047Z" fill="#D2D0CF"/>
<path d="M125.898 60.3073H127.815V60.9791H125.898V62.4484H128.226V63.1202H125.892H125.076V58.3737H125.892H128.226V59.0401H125.898V60.3073Z" fill="#D2D0CF"/>
<path d="M131.877 62.0771H130.009L129.561 63.093H128.654L130.94 58.128L133.22 63.093H132.319L131.877 62.0771ZM131.581 61.4162L130.946 59.9687L130.311 61.4162H131.581Z" fill="#D2D0CF"/>
<path d="M137.199 63.1204H136.273L134.949 61.5146H134.345V63.1204H133.522V58.3739H134.218H135.082C135.778 58.3739 136.183 58.6306 136.394 58.8491C136.673 59.1222 136.818 59.51 136.818 59.947C136.818 60.3839 136.673 60.7663 136.394 61.0394C136.267 61.1705 136.068 61.3125 135.784 61.4053L137.199 63.1204ZM135.082 60.8537C135.421 60.8537 135.675 60.7663 135.838 60.597C136.038 60.4058 136.074 60.1382 136.074 59.9524C136.074 59.7613 136.038 59.4936 135.838 59.297C135.675 59.1331 135.421 59.0457 135.082 59.0457H134.345V60.8482H135.082V60.8537Z" fill="#D2D0CF"/>
<path d="M138.802 60.0828V63.1307H137.98V58.1656L141.282 61.432V58.3896H142.11V63.3546L138.802 60.0828Z" fill="#D2D0CF"/>
</svg>
